<?xml version="1.0" encoding="UTF-8"?>
<svg width="101px" height="101px" viewBox="0 0 101 101" version="1.1" 
    xmlns="http://www.w3.org/2000/svg" 
    xmlns:xlink="http://www.w3.org/1999/xlink">
    <!-- Generator: Sketch 58 (84663) - https://sketch.com -->
    <title>Group 2</title>
    <desc>Created with Sketch.</desc>
    <g id="Page-1" stroke="none" stroke-width="1" fill="none" fill-rule="evenodd">
        <g id="right-after-clicking-next/prev-lot" transform="translate(-1769.000000, -50.000000)">
            <g id="Group-2" transform="translate(1769.000000, 50.000000)">
                <circle id="Oval" fill="#F04D21" cx="50.5" cy="50.5" r="50.5"></circle>
                <path d="M68.4159593,43.8796895 L73.8828523,34.3324709 C74.0390492,34.0219922 74.0390492,33.6338939 73.8828523,33.4010349 L68.1035654,23.3880983 C68.1035654,23.3880983 68.1035654,23.3880983 68.1035654,23.3880983 C68.1035654,23.3880983 68.1035654,23.3104787 68.0254669,23.3104787 C68.0254669,23.3104787 68.0254669,23.3104787 68.0254669,23.3104787 C68.0254669,23.3104787 67.9473684,23.232859 67.9473684,23.232859 C67.9473684,23.232859 67.9473684,23.232859 67.9473684,23.232859 C67.9473684,23.232859 67.8692699,23.1552393 67.8692699,23.1552393 C67.8692699,23.1552393 67.8692699,23.1552393 67.8692699,23.1552393 C67.8692699,23.1552393 67.7911715,23.1552393 67.7911715,23.0776197 C67.7911715,23.0776197 67.7911715,23.0776197 67.7911715,23.0776197 C67.713073,23.0776197 67.6349745,23 67.5568761,23 C67.5568761,23 67.5568761,23 67.5568761,23 C67.5568761,23 67.4787776,23 67.4787776,23 C67.4787776,23 67.4787776,23 67.4787776,23 C67.4006791,23 67.4006791,23 67.3225806,23 L34.6774194,23 C34.5993209,23 34.5993209,23 34.5212224,23 C34.5212224,23 34.5212224,23 34.5212224,23 C34.5212224,23 34.4431239,23 34.4431239,23 C34.4431239,23 34.4431239,23 34.4431239,23 C34.3650255,23 34.286927,23.0776197 34.2088285,23.0776197 C34.2088285,23.0776197 34.2088285,23.0776197 34.2088285,23.0776197 C34.2088285,23.0776197 34.1307301,23.0776197 34.1307301,23.1552393 C34.1307301,23.1552393 34.1307301,23.1552393 34.1307301,23.1552393 C34.1307301,23.1552393 34.0526316,23.232859 34.0526316,23.232859 L34.0526316,23.232859 C34.0526316,23.232859 33.9745331,23.3104787 33.9745331,23.3104787 C33.9745331,23.3104787 33.9745331,23.3104787 33.9745331,23.3104787 C33.9745331,23.3104787 33.9745331,23.3880983 33.8964346,23.3880983 C33.8964346,23.3880983 33.8964346,23.3880983 33.8964346,23.3880983 L28.1171477,33.4010349 C27.9609508,33.7115136 27.9609508,34.0996119 28.1171477,34.3324709 L33.6621392,44.1901682 L33.6621392,76.3247089 C33.6621392,76.4023286 33.6621392,76.4023286 33.6621392,76.4799483 C33.6621392,76.4799483 33.6621392,76.4799483 33.6621392,76.4799483 C33.6621392,76.4799483 33.6621392,76.5575679 33.6621392,76.5575679 C33.6621392,76.5575679 33.6621392,76.5575679 33.6621392,76.5575679 C33.6621392,76.6351876 33.7402377,76.7128072 33.7402377,76.7904269 C33.7402377,76.7904269 33.7402377,76.7904269 33.7402377,76.7904269 C33.7402377,76.7904269 33.7402377,76.8680466 33.8183362,76.8680466 C33.8183362,76.8680466 33.8183362,76.8680466 33.8183362,76.8680466 C33.8183362,76.8680466 33.8964346,76.9456662 33.8964346,76.9456662 L33.8964346,76.9456662 C33.8964346,76.9456662 33.9745331,77.0232859 33.9745331,77.0232859 C33.9745331,77.0232859 33.9745331,77.0232859 33.9745331,77.0232859 C33.9745331,77.0232859 34.0526316,77.0232859 34.0526316,77.1009056 C34.0526316,77.1009056 34.0526316,77.1009056 34.0526316,77.1009056 L44.1273345,82.8447607 C44.2835314,82.9223803 44.4397284,83 44.5959253,83 C44.7521222,83 44.9083192,82.9223803 45.0645161,82.8447607 L55.139219,77.1009056 C55.139219,77.1009056 55.139219,77.1009056 55.139219,77.1009056 C55.139219,77.1009056 55.2173175,77.1009056 55.2173175,77.0232859 C55.2173175,77.0232859 55.2173175,77.0232859 55.2173175,77.0232859 C55.2173175,77.0232859 55.295416,76.9456662 55.295416,76.9456662 C55.295416,76.9456662 55.295416,76.9456662 55.295416,76.9456662 C55.295416,76.9456662 55.3735144,76.8680466 55.3735144,76.8680466 C55.3735144,76.8680466 55.3735144,76.8680466 55.3735144,76.8680466 C55.3735144,76.8680466 55.3735144,76.7904269 55.4516129,76.7904269 C55.4516129,76.7904269 55.4516129,76.7904269 55.4516129,76.7904269 C55.5297114,76.7128072 55.5297114,76.6351876 55.5297114,76.5575679 C55.5297114,76.5575679 55.5297114,76.5575679 55.5297114,76.5575679 C55.5297114,76.5575679 55.5297114,76.4799483 55.5297114,76.4799483 C55.5297114,76.4799483 55.5297114,76.4799483 55.5297114,76.4799483 C55.5297114,76.4023286 55.5297114,76.4023286 55.5297114,76.3247089 L55.5297114,64.9146184 L67.2444822,64.9146184 C67.3225806,64.9146184 67.3225806,64.9146184 67.4006791,64.9146184 C67.4006791,64.9146184 67.4006791,64.9146184 67.4006791,64.9146184 C67.4006791,64.9146184 67.4787776,64.9146184 67.4787776,64.9146184 C67.4787776,64.9146184 67.4787776,64.9146184 67.4787776,64.9146184 C67.5568761,64.9146184 67.6349745,64.8369987 67.713073,64.8369987 C67.713073,64.8369987 67.713073,64.8369987 67.713073,64.8369987 C67.713073,64.8369987 67.7911715,64.8369987 67.7911715,64.759379 C67.7911715,64.759379 67.7911715,64.759379 67.7911715,64.759379 C67.7911715,64.759379 67.8692699,64.6817594 67.8692699,64.6817594 C67.8692699,64.6817594 67.8692699,64.6817594 67.8692699,64.6817594 C67.8692699,64.6817594 67.9473684,64.6041397 67.9473684,64.6041397 C67.9473684,64.6041397 67.9473684,64.6041397 67.9473684,64.6041397 C67.9473684,64.6041397 67.9473684,64.5265201 68.0254669,64.5265201 C68.0254669,64.5265201 68.0254669,64.5265201 68.0254669,64.5265201 L73.8047538,54.5135834 C73.9609508,54.2031048 73.9609508,53.8150065 73.8047538,53.5821475 L68.4159593,43.8796895 Z M60.9185059,52.9611902 L44.8302207,52.9611902 C44.5959253,52.9611902 44.3616299,53.0388098 44.1273345,53.1940492 C44.1273345,53.1940492 44.1273345,53.1940492 44.1273345,53.1940492 C44.1273345,53.1940492 44.1273345,53.1940492 44.049236,53.2716688 C44.049236,53.2716688 44.049236,53.2716688 44.049236,53.2716688 C43.893039,53.4269082 43.7368421,53.6597671 43.7368421,53.9702458 L43.7368421,70.0375162 L35.614601,74.694696 L35.614601,44.8887451 L65.5263158,44.8887451 L60.9185059,52.9611902 Z M53.8896435,74.6170763 L45.7674024,69.9598965 L45.7674024,56.2988357 L53.8896435,64.3712807 L53.8896435,74.6170763 Z M60.9185059,32.9353169 L41.0033956,32.9353169 L36.3174873,24.8628719 L65.5263158,24.8628719 L60.9185059,32.9353169 Z M41.0033956,34.8758085 L60.9185059,34.8758085 L65.6044143,42.9482536 L36.3174873,42.9482536 L41.0033956,34.8758085 Z M67.2444822,41.9391979 L62.5585739,33.8667529 L67.2444822,25.7943079 L71.9303905,33.8667529 L67.2444822,41.9391979 Z M34.6774194,25.7943079 L39.3633277,33.8667529 L34.6774194,41.9391979 L29.991511,33.8667529 L34.6774194,25.7943079 Z M44.7521222,80.9818887 L36.6298812,76.3247089 L44.7521222,71.6675291 L52.8743633,76.3247089 L44.7521222,80.9818887 Z M55.2173175,62.9741268 L47.0950764,54.9016818 L60.9185059,54.9016818 L65.6044143,62.9741268 L55.2173175,62.9741268 Z M67.2444822,62.0426908 L62.5585739,53.9702458 L67.2444822,45.8978008 L71.9303905,53.9702458 L67.2444822,62.0426908 Z" id="Shape" fill="#FFFFFF" fill-rule="nonzero"></path>
            </g>
        </g>
    </g>
</svg>
